<svg xmlns="http://www.w3.org/2000/svg" width="188" height="41" viewBox="0 0 188 41"><g><g><path fill="#273d8b" d="M148.4 9.08h-.8c-4.81 0-9.56 1.25-14.59 2.57l-1.49.38.06 6.26v22.33h4.86V22.23l.14-7.16.69-.56a11.26 11.26 0 0 1 7.56-2.35c5.37 0 9.12 4.47 9.12 10.86v17.6h4.86V22c0-10.87-6.53-12.76-10.41-12.92z"/></g><g><path fill="#273d8b" d="M187.76 12.41V9.08h-7.93V.23H175V30c0 4.14.71 6.8 2.27 8.42a8.37 8.37 0 0 0 6.25 2.32 19.189 19.189 0 0 0 4.29-.44v-2.93h-1.47c-6.46 0-6.46-6.31-6.46-8.38V12.41z"/></g><g><path fill="#273d8b" d="M126.09 21.22v19.42h-9.7c-10.5 0-15.82-3.28-15.82-9.74 0-5.26 4.35-8.36 12.94-9.2 1.64-.17 3.33-.26 4.76-.26h1l2 .06v-2.55c0-1.59-.56-6.88-7.7-7.59a12.541 12.541 0 0 0-1.67-.11 22.5 22.5 0 0 0-7.41 1.33v-2.06a28 28 0 0 1 8.88-1.44c8.71 0 12.77 3.86 12.72 12.14zm-4.73 1.89h-1.93a32.891 32.891 0 0 0-6.33.52c-7 1.38-8 5.45-8 7.74 0 6.21 6 7.09 8 7.38 2.07.247 4.155.357 6.24.33h1.93z"/></g><g><path fill="#273d8b" d="M69 9.083a12.94 12.94 0 0 0-4.85.84c-3.7 1.57-5.48 4.64-5.45 9.39l.14 21.36h5.1l-.12-18.1c0-4.05-.07-10.18 7.58-10.23.69 0 1.44 0 2.26.12v-2.84a21.25 21.25 0 0 0-4.66-.54z"/></g><g><path fill="#273d8b" d="M.66 25.28c0 9.58 6.26 15.53 16.33 15.53a26.91 26.91 0 0 0 6.36-.81v-2.68a21.995 21.995 0 0 1-4.64.46C11.2 37.78 6 32.49 6 24.93a12.94 12.94 0 0 1 3.55-9.38A12.61 12.61 0 0 1 18.71 12a19.65 19.65 0 0 1 4.64.5V9.64a25.67 25.67 0 0 0-4.89-.5C7.81 9.14.66 15.63.66 25.28z"/></g><g><path fill="#273d8b" d="M88.492 23.43c-4.11-1.43-7.49-2.84-7.49-6.56 0-3.35 2.71-5.51 6.92-5.51a15.38 15.38 0 0 1 5.44 1.08v-2.06a15.66 15.66 0 0 0-6.38-1.3c-6.59 0-10.68 3.36-10.68 8.82-.12 4.29 4.5 6.72 8.4 8 4.51 1.52 7.12 3.12 7.12 6.83 0 3.55-2.85 5.68-7.61 5.68a24.55 24.55 0 0 1-7.59-1.51v2.7a26 26 0 0 0 7.54 1.22c7.8 0 12.46-3.3 12.46-8.81-.08-4.01-2.51-6.63-8.13-8.58z"/></g><g><path fill="#273d8b" d="M41.43 9.08c12.29 0 13.24 11.23 13.22 14.65v1.62h-23.9v2c.14 5.36 3.61 9.25 9.3 10.41a20.12 20.12 0 0 0 3.51.33 31.9 31.9 0 0 0 7.55-.81v2.36a34 34 0 0 1-8.77 1.12h-1.91C31.3 40.09 26 34.47 26 25.47c0-7.58 4.55-15.94 14.53-16.39zm8.75 12.31a11.14 11.14 0 0 0-2.8-7.71 8.76 8.76 0 0 0-6.51-2.54h-.6c-6.21.2-9.01 5.52-9.49 10l-.24 2.14h19.64z"/></g><g><path fill="#273d8b" d="M169.56 9.08h-5.16v31.54h5.16z"/></g><g><path fill="#273d8b" d="M167.001.235a2.44 2.44 0 0 0-2.58 2.52 2.6 2.6 0 0 0 5.19 0 2.46 2.46 0 0 0-2.61-2.52z"/></g></g></svg>