<svg xmlns="http://www.w3.org/2000/svg" width="141" height="58" viewBox="0 0 141 58"><g><g><path fill="#2761ab" d="M128.98 9.608h9.028v4.861h-9.028v5.303H141v4.87h-18.247V.594h17.022v4.87H128.98zM115.712.594v24.048h-6.233V14.47H97.562v10.172h-6.234V.594h6.234v9.013h11.917V.594zM71.769 0c8.536 0 15.503 5.669 15.503 12.621 0 6.953-6.967 12.622-15.503 12.622-8.538 0-15.505-5.669-15.505-12.622C56.264 5.67 63.233 0 71.77 0zm-8.31 12.621c0 4.43 3.733 8.04 8.31 8.04 4.574 0 8.315-3.61 8.315-8.04 0-4.429-3.74-8.045-8.315-8.045-4.576 0-8.31 3.616-8.31 8.046zM43.628.595c7.092 0 9.482 3.872 9.482 7.48.008 3.61-1.635 5.882-4.935 7.114l8.58 9.454h-8.594c-3.22-4.034-6.44-8.075-9.658-12.109h3.9a3.553 3.553 0 0 0 3.55-3.549 3.557 3.557 0 0 0-3.55-3.55H37.99v19.208h-6.226V.594zM15.504 0c3.879 0 7.428 1.166 10.15 3.088V7.34c-3.609-1.929-6.989-2.853-10.15-2.765-4.577 0-8.31 3.616-8.31 8.046s3.733 8.038 8.31 8.038a8.523 8.523 0 0 0 4.136-1.063v-6.784h6.431v9.028c-2.772 2.113-6.49 3.403-10.567 3.403C6.967 25.244 0 19.574 0 12.622 0 5.67 6.967 0 15.504 0z"/></g><g><path fill="#82c4ce" d="M55.381 32.98c4.928 1.81 10.033 3.682 16.06 3.682 6.022 0 11.126-1.87 16.054-3.682 12.482-4.584 16.43-4.562 28.984-.162 4.935 1.724 10.04 3.514 16.083 3.514 1.782 0 3.484-.162 5.112-.44a33.048 33.048 0 0 1-2.289 2.852c-.939.082-1.881.123-2.823.124-6.446 0-11.77-1.862-16.912-3.667-4.509-1.576-8.872-3.1-13.64-3.16h-.052c-4.737.067-9.094 1.658-13.59 3.315-5.14 1.884-10.464 3.844-16.926 3.844-6.468 0-11.792-1.96-16.925-3.844-4.504-1.657-8.86-3.25-13.597-3.315h-.052c-4.766.06-9.13 1.585-13.64 3.16-5.134 1.805-10.458 3.667-16.912 3.667a32.68 32.68 0 0 1-3.073-.145 31.84 31.84 0 0 1-2.303-2.875c1.774.32 3.573.483 5.376.485 6.043 0 11.155-1.79 16.083-3.514 12.554-4.4 16.5-4.422 28.982.161zm0 9.27c4.928 1.811 10.033 3.689 16.06 3.689 6.022 0 11.126-1.877 16.054-3.69 12.482-4.583 16.43-4.554 28.984-.152 3.615 1.26 7.326 2.558 11.433 3.167a65.62 65.62 0 0 1-3.072 2.01c-3.242-.711-6.249-1.769-9.19-2.794-4.509-1.584-8.872-3.11-13.64-3.162h-.052c-4.737.059-9.094 1.657-13.59 3.308-5.14 1.893-10.464 3.844-16.926 3.844-6.468 0-11.792-1.95-16.925-3.844-4.504-1.65-8.86-3.25-13.597-3.308h-.052c-4.766.051-9.13 1.578-13.64 3.162-2.992 1.048-6.05 2.119-9.358 2.83a61.835 61.835 0 0 1-3.095-2.024c4.18-.587 7.95-1.907 11.624-3.19 12.554-4.4 16.5-4.43 28.982.154zm0 9.278c4.928 1.81 10.033 3.682 16.06 3.682 6.022 0 11.126-1.871 16.054-3.682 12.482-4.584 16.43-4.562 28.984-.162.11.037.213.074.322.11a83.442 83.442 0 0 1-3.475 1.466c-3.703-1.254-7.37-2.31-11.317-2.354h-.051c-4.737.066-9.094 1.665-13.59 3.315-5.14 1.884-10.464 3.843-16.926 3.843-6.468 0-11.792-1.96-16.925-3.843-4.504-1.65-8.86-3.25-13.597-3.315h-.051c-3.99.045-7.694 1.122-11.433 2.398a80.1 80.1 0 0 1-3.485-1.466l.448-.154c12.554-4.4 16.5-4.423 28.982.162z"/></g></g></svg>