<svg xmlns="http://www.w3.org/2000/svg" width="128" height="82" viewBox="0 0 128 82"><g><g><path fill="#00acec" d="M100.01 81.094h9.625l6.302-35.388h5.887l1.454-8.172h-5.887l1.524-8.172h6.58l1.592-8.656h-16.204zm7.41-60.388h-9.834L91.63 52.492c-.415 2.148-.761 3.532-1.038 4.155-.347.554-.763.83-1.386.83-.553 0-.9-.276-.97-.76-.069-.555.07-1.733.416-3.672l6.094-32.34h-9.903l-4.78 25.554c-.9 4.847-1.453 8.033-1.592 9.556-.069 1.524.139 2.979.763 4.363.553 1.386 1.661 2.493 3.253 3.325 1.594.9 3.464 1.316 5.749 1.316 2.077 0 3.878-.347 5.54-1.108 1.663-.693 3.047-1.8 4.225-3.187 1.177-1.385 2.009-2.77 2.424-4.086.484-1.315.969-3.6 1.592-6.925zm-43.49 27.77c.9-3.879 2.632-9.834 5.194-18.075-.901 7.203-1.525 13.159-1.94 18.076zm.623-27.77l-13.85 43.213h9.833l2.078-7.825h3.463l-.97 7.825h9.071l3.047-43.213zm-7.825 0h-8.31l-3.602 19.46-1.94-19.46h-8.24l-8.103 43.213h8.31l3.671-19.667 1.454 19.666h8.656zm-35.25.347l-6.025 14.335L20.3.9h-9.488L.91 63.919h9.489l2.908-15.442 1.661 15.442h9.073L22.032 40.58l8.172-19.528z"/></g></g></svg>