<svg xmlns="http://www.w3.org/2000/svg" width="136" height="38" viewBox="0 0 136 38"><g><g><path fill="#cc2229" d="M10.01 13.158c2.813-2.512 4.723-2.814 8.692-2.814v8.743c-.703-.05-1.407-.101-2.11-.101-6.08 0-6.18 3.97-6.23 5.678v12.26H.06V10.745h9.949v2.412zm10.485 5.577c.402-2.21.955-4.974 4.673-6.934 2.915-1.507 6.633-1.758 9.346-1.758 12.362 0 12.362 6.381 12.362 9.496v14.17c0 1.708.15 2.16.904 3.215h-10.2v-2.01c-1.307.905-3.718 2.613-8.593 2.613-6.532 0-9.396-3.97-9.396-8.39 0-1.559.352-3.719 2.211-5.578 2.361-2.412 5.175-2.814 9.748-3.417 2.864-.402 3.969-.653 5.527-1.105-.05-1.759-.553-2.965-3.518-2.965-2.36 0-3.014.604-3.366 2.412zm13.466 7.085c-.854.2-1.758.403-2.662.703-2.011.805-2.111 2.011-2.111 2.312 0 .704.603 2.01 2.562 2.01 1.458 0 3.87-.954 4.774-2.964.502-1.105.502-2.16.502-3.065-1.004.35-2.01.703-3.065 1.004zm20.29 1.608c.955.953 1.91 1.808 3.92 2.662 1.86.754 3.266.855 4.12.855 1.256 0 2.714-.452 2.714-1.608 0-1.306-1.558-1.558-2.613-1.709-.905-.15-3.065-.502-5.427-1.206-2.412-.703-7.185-2.11-7.185-7.637 0-2.312 1.055-4.422 2.613-5.93 3.065-2.914 7.486-3.015 9.195-3.015 1.96 0 3.919.252 5.878.704 3.567.854 5.075 1.96 6.532 3.065l-5.577 5.075c-1.759-1.106-3.92-2.462-6.683-2.462-.402 0-2.21 0-2.21 1.356 0 .955.703 1.106 4.17 1.96 4.622 1.055 5.728 1.307 6.984 1.96 2.613 1.407 4.07 3.818 4.07 6.783 0 5.126-4.27 9.647-12.36 9.647-7.437 0-11.708-3.416-13.919-5.225zm49.47 2.512c-.654 1.407-1.206 2.512-2.513 3.818-1.457 1.508-4.824 4.17-10.853 4.17-8.592 0-13.868-5.827-13.868-14.219 0-4.32 1.558-7.838 3.718-10.05 3.617-3.767 8.792-3.968 10.753-3.968 1.76 0 6.733.05 10.703 4.07 1.004 1.005 1.457 1.708 2.06 2.713l-7.889 4.471c-.653-2.31-1.91-3.969-4.372-3.969-3.165 0-4.722 3.115-4.722 7.034 0 2.061.401 5.98 4.47 5.98 3.165 0 4.171-3.015 4.624-4.372zM105.87 1.4h10.3v12.11c.955-1.157 2.965-3.72 8.341-3.72 2.965 0 5.628 1.005 7.235 2.613 2.162 2.261 2.261 5.175 2.362 7.488v17.033h-10.301V22.052c-.049-1.157-.101-3.719-3.718-3.719-3.818 0-3.868 2.713-3.868 3.92v14.67H105.87zm25.579.027h1.437c.854 0 1.277.361 1.277 1.084 0 .722-.458 1.022-.942 1.101l1.082 1.692h-.642l-1.066-1.682h-.582v1.682h-.564zm1.235 1.683c.537 0 .916-.08.916-.6 0-.406-.361-.573-.863-.573h-.722V3.11zm-.036-3.04a3.29 3.29 0 0 1 3.295 3.295 3.29 3.29 0 0 1-3.295 3.295 3.29 3.29 0 0 1-3.295-3.295A3.29 3.29 0 0 1 132.648.07zm0 6.08c1.488 0 2.731-1.269 2.731-2.784S134.136.582 132.648.582c-1.49 0-2.732 1.269-2.732 2.784s1.242 2.784 2.732 2.784z"/></g></g></svg>