<svg xmlns="http://www.w3.org/2000/svg" width="172" height="41" viewBox="0 0 172 41"><g><g><path fill="#5a5e5e" d="M130.83 19.345h3.586v-8.217c-2.188-.522-3.586.204-3.586 3.034zm-9.895-8.976c0-1.559.45-2.975 1.085-3.948.673-1.03 1.607-1.741 3.244-1.741h19.047v35.651h-9.895V25.413h-3.586v14.918h-9.524c-.285 0-.37-.088-.37-.379zm-63.2 8.85c3.78.9 3.751-4.19 3.12-6.73-.479-1.93-1.181-1.614-3.12-1.614zM47.84 4.68h17.563c1.936 0 3.09.875 4.052 1.926.775.846 1.637 2.666 1.637 4.269v8.217c0 1.945-1.874 2.697-2.35 3.035 1.728.146 2.597 1.76 2.597 3.54v14.412H61.321V28.195c0-3.631-2.195-2.782-3.587-2.782v14.918h-9.523c-.285 0-.371-.088-.371-.379zm46.257 0h9.894v14.665h3.587V4.68h9.894v35.272c0 .291-.086.38-.37.38h-9.524V25.412h-3.587v14.918h-9.894zm74.826 4.425c0-2.596-3.041-3.614-4.613-2.06-.945.934-.829 1.452-.829 2.566 0 1.078 1.379 2.275 2.598 2.275 1.582 0 2.844-1.19 2.844-2.781zM147.774 4.68h9.894v27.055c0 1.173.386 2.781 1.485 2.781 1.355 0 2.102-.473 2.102-2.781V4.68h9.895v28.319c0 3.16-.987 5.511-3.13 6.535-3.075 1.468-14.04 1.416-17.067-.05-2.417-1.172-3.179-3.89-3.179-6.612zm-73.095 0h16.326v6.068h-6.432v8.597h6.432v6.068h-6.432v8.724h6.432v6.068l-16.326.126z"/></g><g><path fill="#e9128b" d="M9.63 34.516c.122.466.054.258.363.514l1.69 1.307c.43.29.748.547 1.203.792 4.832 2.609 10.148 3.37 15.256.76 1.473-.753 3.793-2.28 4.846-3.644.168-.218.286-.316.483-.517 2.196-2.239 3.616-6.495 3.616-9.958-.974.667-2.63 2.136-4.032 3.085l-4.354 2.755c-.986.61-2.172 1.135-3.243 1.615-3.963 1.777-6.875 2.476-11.214 3.077-1.44.2-2.878.214-4.614.214z"/></g><g><path fill="#a4cc3a" d="M.85 19.094c0 3.58.497 6.494 2.298 9.281.388.6 1.614 2.306 2.123 2.761.605.542 2.241 1.966 2.876 2.117-.511-2.245-.618-6.685-.618-9.229 0-5.28 1.045-9.37 2.55-13.7.276-.791.599-1.596.953-2.314.492-.995.38-.985 1.067-2.196.39-.688.756-1.442 1.119-2.144-1.651.393-3.289 1.274-4.708 2.14-.388.237-.64.438-1.032.716L5.584 8.13c-.358.309-.452.581-.807.945C2.945 10.958.85 15.36.85 19.094z"/></g><g><path fill="#bcbebe" d="M15.56 1.896v.253c.746.064 2.862 1.106 3.658 1.444 1.1.467 2.42 1.178 3.475 1.758 3.098 1.705 6.38 4.1 8.853 6.628 2.114 2.161 1.794 1.797 3.708 4.174.416.516.716.994 1.103 1.527l2.084 3.18c.218-.466.495-3.232.495-4.046 0-4.122-1.594-8.806-4.359-11.6-.339-.343-.583-.612-.926-.95l-1.073-.926C30.398 1.658 26.875 0 23.97 0 21.395 0 19.321.068 17 1.22c-.484.24-.929.555-1.44.676z"/></g></g></svg>