<svg xmlns="http://www.w3.org/2000/svg" width="154" height="67" viewBox="0 0 154 67"><g><g><path fill="#075fa7" d="M85.329 66.833c-7.172-.435-11.264-.996-27.256-3.738-12.398-2.125-16.446-2.711-20.927-3.031l-1.435-.102-3.333.051-3.333.052-1.899.132c-7.426.516-14.8 1.62-23.71 3.547-1.413.306-2.619.557-2.678.557H.65V52.13h.046c.025 0 1.078-.268 2.341-.596 7.158-1.862 12.938-2.855 19.342-3.325l1.772-.13 6.075-.198 5.148.046 5.147.047 1.308.096c6.503.478 10.37 1.058 23.627 3.543 8.653 1.622 13.266 2.303 18.438 2.722l1.772.144 2.269.056 2.268.055 5.59-.114 2.151-.14c2.334-.15 5.102-.383 8.121-.683l1.918-.19-.062.063c-.034.035-4.598 3.056-10.143 6.713l-10.08 6.65-.974-.016a43.778 43.778 0 0 1-1.395-.04zm26.814-5.448c.475-.797 2.306-3.865 4.07-6.817l3.207-5.37h34.555v13.636h-42.696zM59.971 41.459c-3.568-.358-5.718-.906-8.016-2.042l-.886-.439-.867-.593-.868-.593-.77-.749-.772-.748-.494-.634-.494-.634-.462-.803-.462-.803-.367-.937a15.429 15.429 0 0 1-.854-3.048l-.133-.731-.174-2.533.088-1.199c.048-.659.15-1.566.224-2.015l.136-.817.583-1.985.923-1.973.483-.737.483-.737.801-.856.802-.857.635-.494a14.07 14.07 0 0 1 2.66-1.647l.847-.41 1.01-.345 1.008-.343.97-.22c1.29-.29 2.482-.462 3.966-.57l1.224-.088h2.785l1.223.089c.673.048 1.746.165 2.384.26l1.16.171 1.131.292c1.458.375 2.383.72 3.637 1.354l1.013.512.783.573.784.573.696.698c.802.803 1.284 1.43 1.898 2.467l.434.734.334.82c.432 1.062.732 2.13.949 3.366l.173.992.044 1.862.044 1.861-.1.9a26.29 26.29 0 0 1-.269 1.764l-.168.863-.29.887-.289.888-.389.795a18.108 18.108 0 0 1-.86 1.53l-.473.733-1.951 1.997-.845.572-.845.572-1.939.948-2.025.685-.97.22a28 28 0 0 1-3.755.568l-1.013.09-2.11-.014c-1.16-.007-2.242-.026-2.405-.042zm5.098-5.37a8.69 8.69 0 0 0 1.136-.402l.469-.22.447-.353.448-.353.403-.616.403-.616.463-1.433.135-.835.135-.835.039-3.615.04-3.614-.097-1.113-.096-1.113-.406-1.636-.277-.54-.277-.538-.508-.519-.508-.518-.424-.232-.424-.23-.747-.222-.747-.222-1.007-.094-1.007-.094-1.005.1-1.005.099-1.229.347-.548.274-.547.275-.515.518-.514.518-.31.647-.309.647-.16.653c-.09.358-.211 1.038-.271 1.51l-.11.858.004 3.625.003 3.625.144 1.079.143 1.078.548 1.64.322.497.322.496.392.353.392.352.676.33.676.331.632.134c.349.074.728.152.844.173.116.022.876.028 1.688.013l1.477-.026zm35.196 5.299a17.837 17.837 0 0 1-3.418-.839l-.97-.34-.927-.473-.926-.472-1.607-1.1-.666-.612a14.125 14.125 0 0 1-2.258-2.633l-.507-.77-.408-.87c-.681-1.454-1.134-3.064-1.347-4.795l-.09-.734-.002-3.117.126-.92c.159-1.156.318-1.87.65-2.91l.26-.82.405-.863.405-.863.51-.777a14.034 14.034 0 0 1 2.256-2.638l.666-.612.801-.546c1.077-.734 1.722-1.085 2.827-1.538 1.466-.601 2.812-.955 4.515-1.188l.717-.097 2.052.007 2.052.007 1.155.091c3.606.284 6.886.957 8.836 1.812l.365.16-1.058 2.53c-.582 1.391-1.087 2.562-1.122 2.6l-.063.07-.87-.31c-1.703-.606-3.553-.996-5.542-1.169l-1.104-.096-.858.097-.858.096-.638.167-.639.167-.617.304-.618.304-.549.452-.548.452-.429.548-.428.548-.38.8-.381.8-.243.985-.243.985-.103.9-.102.9.048 1.73.049 1.73.172.857c.398 1.985 1.052 3.367 2.085 4.407.841.846 1.846 1.4 3.111 1.715l.59.147.844.072.844.073.928-.075a20.863 20.863 0 0 0 3.163-.475l.969-.211 2.334-.795.066.076c.036.043.534 1.199 1.106 2.57l1.041 2.493-.153.115c-.085.063-.614.27-1.175.459-2.015.68-3.788 1.043-6.591 1.354l-1.182.13-2.742.035-2.743.035-.844-.122zm29.517-.952l-1.113-.298-.891-.342a21.636 21.636 0 0 1-1.741-.778l-.85-.435-.646-.454-.645-.454-.619-.598-.618-.598-.902-1.393-.209-.518c-.115-.284-.277-.79-.36-1.121l-.151-.605-.002-2.157.103-.561c.231-1.25.717-2.413 1.394-3.334l.389-.53.535-.512.536-.512.612-.416a15.57 15.57 0 0 1 1.426-.828l.815-.412.862-.306c1.807-.64 4.286-1.137 6.944-1.39l1.392-.132 2.405-.085c1.323-.046 2.755-.085 3.183-.086l.777-.001.077-.151.077-.151-.068-1.256-.068-1.256-.127-.557a7.035 7.035 0 0 0-.298-.967l-.172-.41-.804-.88-.411-.212a7.017 7.017 0 0 0-1.056-.398l-.646-.185h-2.531l-2.532.002-1.181.153-1.182.154-2.194.575-1.265.532a56.34 56.34 0 0 1-1.399.575l-.133.042-.49-1.365c-.269-.751-.618-1.726-.774-2.167l-.284-.802.401-.176c1.393-.615 4.393-1.262 7.362-1.589l1.139-.125 2.341-.105 2.342-.104 1.878.103 1.877.103.971.133c1.989.273 3.95.823 5.383 1.51l.716.343.727.493.726.493.636.65.635.651.405.626.404.625.284.67.283.668.172.69c.094.38.211 1.02.259 1.423l.087.73v18.253l-.95.302c-3.117.99-6.208 1.66-9.598 2.084l-1.14.142-2.995.024c-1.648.013-3.167.008-3.375-.011-2.324-.21-4.35-.549-6.135-1.026zm12.59-4.377l.106-.087.106-.088-.022-4.93-.021-4.93-2.616-.054-1.207.097c-1.35.108-2.264.256-3.214.52l-.642.18-.688.339-.687.338-.944.883-.31.642-.31.642-.039.894-.039.893.284 1.308.263.543.262.543.598.605.597.605.633.314c.796.395 1.601.645 2.574.799l.759.12 1.304.008 1.303.008zM.65 40.824V.63l10.4-.065L21.45.5l5.992.089 1.112.177c2.663.424 4.539 1.111 6.2 2.273l.73.51.665.709c.828.882 1.115 1.307 1.634 2.418l.41.879.21.82c.115.45.254 1.13.31 1.51l.1.69-.004 2.33-.139.864-.139.863-.296.906-.296.906-.3.561c-.165.309-.488.821-.717 1.138l-.417.577-1.426 1.381-.697.471c-.84.568-1.664 1-2.848 1.492l-.886.369.006.199.005.199 4.91 9.01c2.7 4.955 4.91 9.024 4.91 9.04 0 .017-3.104.028-6.898.024l-6.899-.006-1.791-3.683c-1.858-3.82-3.815-7.645-5.393-10.544l-.917-1.683h-5.4l-.148.062-.147.062v15.799l-3.397-.02c-1.868-.012-4.62-.031-6.118-.045zm14.43-21.619c1.129-.07 2.716-.271 3.767-.479l.895-.177.854-.286c1.105-.37 1.834-.711 2.595-1.215l.614-.406.541-.53.541-.53.36-.517c.475-.682.815-1.39 1.1-2.287l.233-.734-.003-.608-.002-.607-.135-.536c-.164-.654-.39-1.128-.824-1.722l-.33-.453-.599-.43-.598-.43-1.301-.513-1.76-.392-8.1-.005-.022 6.377-.022 6.377.1.123.1.123.597-.046c.328-.026.958-.07 1.399-.097z"/></g></g></svg>